<svg xmlns="http://www.w3.org/2000/svg" version="1.1" xmlns:xlink="http://www.w3.org/1999/xlink" xmlns:svgjs="http://svgjs.dev/svgjs" width="1500" height="1500" viewBox="0 0 1500 1500"><rect width="1500" height="1500" fill="#0f172a"></rect><g transform="matrix(0.3037667071688943,0,0,0.3037667071688943,521.3710743076323,248.38709677419342)"><svg viewBox="0 0 113 248" data-background-color="#0f172a" preserveAspectRatio="xMidYMid meet" height="3292" width="1500" xmlns="http://www.w3.org/2000/svg" xmlns:xlink="http://www.w3.org/1999/xlink"><g id="tight-bounds" transform="matrix(1,0,0,1,0.1993638945720022,0.4000000000000057)"><svg viewBox="0 0 112.60127221085598 247.2" height="247.2" width="112.60127221085598"><g><svg viewBox="0 0 168.89762946793996 370.7906064" height="247.2" width="112.60127221085598"><g><svg viewBox="0 0 168.89762946793996 370.7906064" height="370.7906064" width="168.89762946793996"><g id="textblocktransform"><svg viewBox="0 0 168.89762946793996 370.7906064" height="370.7906064" width="168.89762946793996" id="textblock"><g><rect width="168.89762946793996" height="247.2" fill="none" stroke-width="9.018103199999999" stroke="#31c48d" data-fill-palette-color="none" data-stroke-palette-color="tertiary"></rect><rect width="168.89762946793996" height="123.5906064" y="247.2" fill="#31c48d" data-fill-palette-color="tertiary"></rect></g><g><svg viewBox="0 0 168.89762946793996 247.2" height="247.2" width="168.89762946793996"><g transform="matrix(1,0,0,1,23.60759999999999,23.607599999999998)"><svg width="121.68242946793998" viewBox="1.3 -35.15 22.3 36.65" height="199.9848" data-palette-color="#31c48d"><path d="M13.45-28.75L13.45-28.75Q11.25-28.75 9.6-23.33 7.95-17.9 7.95-13.7L7.95-13.7Q7.95-4.9 12.55-4.9L12.55-4.9Q13.85-4.9 14.83-6.03 15.8-7.15 16.23-8.35 16.65-9.55 17.25-11.65L17.25-11.65 23.6-11.15Q22.3-5 19.73-1.75 17.15 1.5 12.55 1.5L12.55 1.5Q7.15 1.5 4.23-2.58 1.3-6.65 1.3-12.95L1.3-12.95Q1.3-20.3 4.2-27.25L4.2-27.25Q5.6-30.7 8.13-32.93 10.65-35.15 13.9-35.15L13.9-35.15Q17.9-35.15 19.7-32.5L19.7-32.5Q20.6-31.2 21.18-29.85 21.75-28.5 22-26.4L22-26.4Q22.45-23.05 22.55-19.2L22.55-19.2 16.1-19.8Q16.1-26.25 14.9-27.9L14.9-27.9Q14.35-28.75 13.45-28.75Z" opacity="1" transform="matrix(1,0,0,1,0,0)" fill="#31c48d" class="wordmark-text-0" data-fill-palette-color="primary" id="text-0"></path></svg></g></svg></g></svg></g></svg></g><g></g></svg></g><defs></defs></svg><rect width="112.60127221085598" height="247.2" fill="none" stroke="none" visibility="hidden"></rect></g></svg></g></svg>